<?xml version="1.0" encoding="UTF-8" standalone="no"?>
<svg
   xmlns:dc="http://purl.org/dc/elements/1.1/"
   xmlns:cc="http://creativecommons.org/ns#"
   xmlns:rdf="http://www.w3.org/1999/02/22-rdf-syntax-ns#"
   xmlns:svg="http://www.w3.org/2000/svg"
   xmlns="http://www.w3.org/2000/svg"
   xmlns:sodipodi="http://sodipodi.sourceforge.net/DTD/sodipodi-0.dtd"
   xmlns:inkscape="http://www.inkscape.org/namespaces/inkscape"
   width="93.526474mm"
   height="92.475487mm"
   viewBox="0 0 93.526474 92.475487"
   version="1.1"
   id="svg2235"
   inkscape:version="1.0.1 (3bc2e813f5, 2020-09-07)"
   sodipodi:docname="Logo_orange.svg">
  <defs
     id="defs2229" />
  <sodipodi:namedview
     id="base"
     pagecolor="#ffffff"
     bordercolor="#666666"
     borderopacity="1.0"
     inkscape:pageopacity="0.0"
     inkscape:pageshadow="2"
     inkscape:zoom="1.979899"
     inkscape:cx="176.96809"
     inkscape:cy="191.62693"
     inkscape:document-units="mm"
     inkscape:current-layer="layer1"
     inkscape:document-rotation="0"
     showgrid="false"
     fit-margin-top="0"
     fit-margin-left="0"
     fit-margin-right="0"
     fit-margin-bottom="0"
     inkscape:window-width="2560"
     inkscape:window-height="1369"
     inkscape:window-x="-8"
     inkscape:window-y="-8"
     inkscape:window-maximized="1" />
  <metadata
     id="metadata2232">
    <rdf:RDF>
      <cc:Work
         rdf:about="">
        <dc:format>image/svg+xml</dc:format>
        <dc:type
           rdf:resource="http://purl.org/dc/dcmitype/StillImage" />
        <dc:title></dc:title>
      </cc:Work>
    </rdf:RDF>
  </metadata>
  <g
     inkscape:label="Ebene 1"
     inkscape:groupmode="layer"
     id="layer1"
     transform="translate(-32.61176,-118.55988)">
    <path
       style="display:inline;fill:#ff800d;fill-opacity:1;stroke:#ff800d;stroke-width:0.264583;stroke-opacity:1"
       d="m 92.081142,181.88352 c -7.789531,-1.52273 -8.99641,-1.77389 -11.50938,-2.39521 -6.16122,-1.52332 -11.770802,-3.80348 -14.042721,-5.70803 -0.58049,-0.48661 -2.410079,-2.37304 -4.06577,-4.19205 -1.65568,-1.81901 -4.03313,-4.38341 -5.28322,-5.69868 -2.37271,-2.49643 -8.70937,-9.59594 -11.20824,-12.55758 -0.79809,-0.94588 -2.12689,-2.7161 -2.95289,-3.93384 -1.51568,-2.23447 -1.78138,-3.25287 -0.89283,-3.42216 1.07687,-0.20518 14.6942,8.40686 25.272271,15.98298 2.213488,1.58533 4.8822,3.47771 5.930468,4.20533 1.048272,0.7276 3.623681,2.54359 5.723142,4.03554 3.082499,2.29224 6.072539,4.3096 8.725781,6.1009 8.948377,6.02149 9.679498,6.53438 9.961419,6.98804 0.769171,1.23779 -1.271381,1.45229 -5.65803,0.59476 z"
       id="path3255-2" />
    <path
       style="display:inline;fill:#ff800d;fill-opacity:1;stroke:#ff800d;stroke-width:0.264583;stroke-opacity:1"
       d="m 85.486181,191.6638 c -1.146509,-0.49749 -7.545089,-5.32729 -9.473251,-7.15064 -0.801018,-0.75747 -1.4034,-1.53818 -1.338638,-1.73492 0.167519,-0.50888 1.97325,-0.58624 5.368309,-0.22998 11.115982,1.16646 17.184222,1.90149 17.618972,2.13416 1.083619,0.57994 0.650798,1.00024 -5.292551,5.13931 -3.061311,2.13197 -5.01174,2.65396 -6.882841,1.84207 z"
       id="path3257-3" />
    <path
       style="display:inline;fill:#ff800d;fill-opacity:1;stroke:#ff800d;stroke-width:0.264583;stroke-opacity:1"
       d="m 93.933221,192.62072 c 0,-0.6672 2.534962,-3.7179 3.08937,-3.7179 0.354041,0 0.399952,0.22986 0.277442,1.38906 -0.0807,0.76398 -0.27305,1.71648 -0.427342,2.11667 -0.254468,0.65999 -0.40408,0.7276 -1.61,0.7276 -1.14127,0 -1.32947,-0.073 -1.32947,-0.51543 z"
       id="path3259-8" />
    <path
       style="display:inline;fill:#ff800d;fill-opacity:1;stroke:#ff800d;stroke-width:0.264583;stroke-opacity:1"
       d="m 96.683011,206.10073 c 0.2506,-9.98575 2.025031,-16.57393 6.435559,-23.89416 0.50929,-0.84528 0.88335,-1.56848 0.83125,-1.60712 -0.0521,-0.0386 -0.74957,-0.465 -1.54993,-0.94747 -0.80037,-0.48247 -2.11005,-1.37967 -2.910419,-1.99378 -0.80036,-0.6141 -3.18343,-2.29781 -5.295699,-3.74156 -2.11227,-1.44375 -5.743671,-4.1325 -8.069789,-5.97499 -2.326111,-1.84249 -6.913341,-5.4702 -10.193833,-8.06159 -3.280489,-2.59139 -8.56869,-6.9738 -11.751558,-9.7387 -3.182872,-2.76491 -7.344921,-6.38245 -9.249021,-8.039 -8.81711,-7.6708 -17.78579,-16.89444 -20.86876,-21.46201 l -1.3394,-1.98437 3.94914,3.73579 c 6.00756,5.68301 7.54848,7.08901 12.3076,11.23004 9.54091,8.30176 36.550411,26.85303 45.988241,31.58667 7.218528,3.62051 16.169968,7.32543 25.409378,10.5167 2.99188,1.03339 5.5233,1.95076 5.6254,2.0386 0.1021,0.0879 -1.44571,1.1612 -3.43959,2.38523 -10.2821,6.31213 -13.10611,8.49118 -17.4489,13.46383 -3.63389,4.16094 -5.493659,7.68647 -7.634347,14.47231 l -0.918141,2.91041 z"
       id="path3261-0" />
  </g>
</svg>
